<?xml version="1.0" encoding="UTF-8"?>
<svg id="Layer_1" data-name="Layer 1" xmlns="http://www.w3.org/2000/svg" viewBox="0 0 28.35 28.35">
  <rect width="28.35" height="28.35" fill="#1c0e32"/>
  <path d="M16,2.84s-.1,0-.15,0l-.29,3.95c.29.05.55.11.75.21l-.31-4.16ZM14.26,2.83h-.14l-.29,3.88h.72l-.29-3.88ZM6.66,18.41l.32,4.25c.14.3.31.57.51.82l.39-5.2h-.75c-.2,0-.34.05-.46.13ZM21.62,9.29v-.66l-.1-1.32c-.12-.73-.34-1.37-.67-1.94l-.35,4.65h.37c.49,0,.74-.25.74-.74ZM17.14,9.29c0,.49.25.74.74.74h.38l-.52-6.95c-.06-.02-.12-.03-.18-.04l-.44,5.86c0,.06,0,.12,0,.18v.21ZM19.54,3.91c-.09-.07-.19-.14-.29-.2l-.47,6.32h1.21l-.45-6.12ZM12.53,2.83h-.14l-.3,4.02c.21-.06.46-.09.73-.11l-.29-3.9ZM8.86,24.7c.08.05.17.09.26.14l.49-6.56h-1.22l.48,6.42ZM21.11,15.05c-.55-.9-1.24-1.53-2.06-1.89-.16-.06-.33-.12-.49-.17l-.04.52-.04-.55c-.52-.19-1.05-.35-1.61-.49l-.08,1.04-.08-1.08c-.5-.12-1.01-.22-1.55-.3l-.1,1.38-.1-1.4c-.4-.06-.81-.11-1.23-.14-.1,0-.18-.02-.28-.03l-.12,1.58-.12-1.61c-.6-.09-1.09-.23-1.46-.43l-.15,2.04-.17-2.25c-.39-.31-.6-.7-.6-1.2v-.67c0-.83.11-1.44.32-1.85l-.34-4.6c-.06,0-.11.02-.16.03l-.78,10.53-.74-10.03c-.09.04-.17.09-.25.14l-.73,9.89-.65-8.69c-.19.24-.36.5-.5.79l-.45,6.09c.14.65.35,1.23.65,1.73.55.93,1.24,1.55,2.06,1.87.18.07.38.13.57.19l.05-.66.05.7c.51.17,1.04.32,1.6.45l.09-1.15.09,1.19c.08.02.15.04.22.06.45.1.89.17,1.31.24l.11-1.48.11,1.52c.39.06.77.1,1.13.14.13.01.24.03.36.05l.13-1.7.13,1.74c.55.11,1.03.29,1.43.56l.17-2.3.19,2.6c.32.33.48.76.48,1.28v.42c0,.63-.09,1.11-.24,1.48l.35,4.77c.06-.01.11-.02.17-.03l.78-10.52.74,9.98c.09-.05.18-.09.26-.14l.73-9.84.64,8.57c.21-.28.38-.59.53-.92l.4-5.39c-.13-.78-.35-1.47-.71-2.04ZM14.12,25.51h.14l.29-3.88h-.72l.29,3.88ZM15.85,25.51h.14l.3-4.07c-.21.07-.45.13-.74.16l.29,3.91ZM12.39,25.51h.14l.29-3.9c-.28-.02-.52-.06-.73-.12l.3,4.02ZM10.86,19.02c0-.49-.25-.74-.74-.74h0l.53,7.08c.06.01.11.02.16.03l.34-4.58c-.19-.35-.29-.85-.29-1.5v-.28Z" fill="#7e5ac5"/>
</svg>